<svg width="171" height="180" viewBox="0 0 171 180" fill="none" xmlns="http://www.w3.org/2000/svg">
<g clip-path="url(#clip0_1019_1313)">
<path d="M28.2462 14.561C28.2462 22.1121 22.0628 28.2949 14.4448 28.2949C6.82683 28.2949 0.692871 22.1628 0.692871 14.561C0.692871 6.95923 6.8763 0.877808 14.4943 0.877808C22.1123 0.877808 28.2957 7.00991 28.2957 14.6117L28.2462 14.561Z" fill="url(#paint0_linear_1019_1313)"/>
<path d="M98.5892 14.3584C98.5892 21.9095 92.4058 28.0923 84.7878 28.0923C82.7596 28.0923 80.682 27.6868 78.8517 26.7746C76.6256 25.7104 74.7954 24.038 72.6188 22.8217C70.1949 21.5041 67.4247 21.0986 64.7535 21.8588C61.736 22.6697 59.8067 25.1022 57.086 26.5212C55.1073 27.5348 52.9308 28.0923 50.7047 28.0923C43.0867 28.0923 36.9033 21.9602 36.9033 14.3584C36.9033 6.75661 43.0867 0.624512 50.7047 0.624512C53.0792 0.624512 55.5031 1.23265 57.5807 2.44894C59.7078 3.66522 61.2908 5.64169 63.3189 7.01001C65.6439 8.58104 68.7109 9.03715 71.2832 7.9729C74.1028 6.80729 75.5374 3.76658 78.1591 2.34758C80.1873 1.23265 82.5123 0.624512 84.8372 0.624512C92.4552 0.624512 98.6386 6.75661 98.6386 14.3584H98.5892Z" fill="url(#paint1_linear_1019_1313)"/>
<path d="M135.096 14.561C135.096 22.1121 128.913 28.2949 121.295 28.2949C113.677 28.2949 107.493 22.1628 107.493 14.561C107.493 6.95923 113.726 0.877808 121.295 0.877808C128.863 0.877808 135.096 7.00991 135.096 14.6117V14.561Z" fill="url(#paint2_linear_1019_1313)"/>
<path d="M170.317 48.9719C170.317 56.523 164.133 62.7058 156.515 62.7058C148.897 62.7058 142.714 56.5737 142.714 48.9719C142.714 45.9312 143.802 42.9918 145.632 40.6606C148.254 37.3158 151.173 34.3258 149.936 29.6127C148.996 26.1665 146.078 24.1901 144.445 21.1494C143.357 19.1222 142.763 16.8417 142.763 14.5612C142.763 7.01005 148.947 0.827271 156.565 0.827271C164.183 0.827271 170.366 6.95937 170.366 14.5612C170.366 16.7403 169.822 18.9195 168.833 20.896C167.547 23.3792 165.32 25.153 164.133 27.7376C162.996 30.2715 162.402 33.5149 163.639 36.0995C164.677 38.228 166.706 39.5964 168.041 41.4715C169.575 43.6 170.317 46.3366 170.317 48.9719Z" fill="url(#paint3_linear_1019_1313)"/>
<path d="M28.2464 48.9718C28.2464 56.5229 22.0629 62.7057 14.445 62.7057C6.82698 62.7057 0.643555 56.5736 0.643555 48.9718C0.643555 41.37 6.82698 35.2379 14.445 35.2379C22.0629 35.2379 28.2464 41.37 28.2464 48.9718Z" fill="url(#paint4_linear_1019_1313)"/>
<path d="M64.5061 83.1292C64.5061 90.6803 58.3227 96.8631 50.7047 96.8631C43.0867 96.8631 36.9033 90.731 36.9033 83.1292C36.9033 80.6966 37.6453 78.3654 38.7831 76.2369C39.9703 74.0578 41.8006 72.3347 42.8889 70.1048C44.9665 65.8478 44.4224 61.7935 41.108 58.4994C40.2176 57.6379 39.4756 56.675 38.8325 55.6614C37.5464 53.5836 36.9033 51.2017 36.9033 48.7692C36.9033 41.2181 43.0867 35.0353 50.7047 35.0353C58.3227 35.0353 64.5061 41.1674 64.5061 48.7692C64.5061 51.0497 63.9125 53.3302 62.8242 55.3574C62.2801 56.3709 61.5876 57.2832 60.7961 58.1447C57.3334 61.7935 56.344 67.9763 59.2131 72.3347C60.3014 73.9564 61.8844 74.97 62.8242 76.693C63.9125 78.6695 64.5061 80.95 64.5061 83.2306V83.1292Z" fill="url(#paint5_linear_1019_1313)"/>
<path d="M98.7864 48.7184C98.7864 56.2695 92.603 62.4523 84.985 62.4523C77.367 62.4523 71.1836 56.3202 71.1836 48.7184C71.1836 41.1166 77.367 34.9845 84.985 34.9845C92.603 34.9845 98.7864 41.1166 98.7864 48.7184Z" fill="url(#paint6_linear_1019_1313)"/>
<path d="M169.97 83.3826C169.97 90.9337 163.787 97.1165 156.169 97.1165C153.646 97.1165 151.173 96.407 149.045 95.14C147.364 94.1265 146.226 92.4541 144.593 91.2885C140.537 88.3491 134.7 90.1735 131.039 92.8595C128.368 94.836 125.895 96.6097 122.482 97.0151C121.937 97.0658 121.344 97.1165 120.8 97.1165C113.182 97.1165 106.998 90.9844 106.998 83.3826C106.998 81.5075 107.394 79.6324 108.136 77.9093C109.422 74.97 111.994 72.9428 113.231 69.9528C114.171 67.7736 114.616 65.0877 113.874 62.8071C112.934 59.8171 110.164 58.3981 108.68 55.7628C107.542 53.7357 106.949 51.4045 106.949 49.0732C106.949 41.5221 113.132 35.3394 120.75 35.3394C128.368 35.3394 134.552 41.4715 134.552 49.0732C134.552 51.3538 133.958 53.685 132.82 55.6614C132.276 56.675 131.583 57.5872 130.792 58.3981C128.615 60.7293 126.637 63.9221 127.28 67.2668C128.022 71.4732 131.386 74.7166 135.195 76.1356C137.124 76.8451 139.251 77.1492 141.279 76.8451C143.851 76.4903 145.484 74.4632 147.413 72.8415C147.413 72.8415 147.512 72.7908 147.561 72.7401C149.045 71.5238 150.727 70.6116 152.558 70.1555C153.695 69.8514 154.883 69.6994 156.119 69.6994C163.737 69.6994 169.921 75.8315 169.921 83.4333L169.97 83.3826Z" fill="url(#paint7_linear_1019_1313)"/>
<path d="M98.7864 83.1292C98.7864 90.6803 92.603 96.863 84.985 96.863C77.367 96.863 71.1836 90.7309 71.1836 83.1292C71.1836 75.5274 77.367 69.3953 84.985 69.3953C92.603 69.3953 98.7864 75.5274 98.7864 83.1292Z" fill="url(#paint8_linear_1019_1313)"/>
<path d="M120.998 76.4396C120.998 76.4396 120.8 76.7943 120.701 76.9464H120.454C120.454 76.9464 120.652 76.7943 120.998 76.4396Z" fill="url(#paint9_linear_1019_1313)"/>
<path d="M51.9903 76.541C51.9903 76.541 51.9904 76.644 51.8914 76.6954H51.7925C51.7925 76.6954 51.8419 76.644 51.9903 76.541Z" fill="url(#paint10_linear_1019_1313)"/>
<path d="M28.2462 14.561C28.2462 22.1121 22.0628 28.2949 14.4448 28.2949C6.82683 28.2949 0.692871 22.1628 0.692871 14.561C0.692871 6.95923 6.8763 0.877808 14.4943 0.877808C22.1123 0.877808 28.2957 7.00991 28.2957 14.6117L28.2462 14.561Z" fill="url(#paint11_linear_1019_1313)"/>
<path d="M98.5892 14.3584C98.5892 21.9095 92.4058 28.0923 84.7878 28.0923C82.7596 28.0923 80.682 27.6868 78.8517 26.7746C76.6256 25.7104 74.7954 24.038 72.6188 22.8217C70.1949 21.5041 67.4247 21.0986 64.7535 21.8588C61.736 22.6697 59.8067 25.1022 57.086 26.5212C55.1073 27.5348 52.9308 28.0923 50.7047 28.0923C43.0867 28.0923 36.9033 21.9602 36.9033 14.3584C36.9033 6.75661 43.0867 0.624512 50.7047 0.624512C53.0792 0.624512 55.5031 1.23265 57.5807 2.44894C59.7078 3.66522 61.2908 5.64169 63.3189 7.01001C65.6439 8.58104 68.7109 9.03715 71.2832 7.9729C74.1028 6.80729 75.5374 3.76658 78.1591 2.34758C80.1873 1.23265 82.5123 0.624512 84.8372 0.624512C92.4552 0.624512 98.6386 6.75661 98.6386 14.3584H98.5892Z" fill="url(#paint12_linear_1019_1313)"/>
<path d="M135.096 14.561C135.096 22.1121 128.913 28.2949 121.295 28.2949C113.677 28.2949 107.493 22.1628 107.493 14.561C107.493 6.95923 113.726 0.877808 121.295 0.877808C128.863 0.877808 135.096 7.00991 135.096 14.6117V14.561Z" fill="url(#paint13_linear_1019_1313)"/>
<path d="M170.317 48.9719C170.317 56.523 164.133 62.7058 156.515 62.7058C148.897 62.7058 142.714 56.5737 142.714 48.9719C142.714 45.9312 143.802 42.9918 145.632 40.6606C148.254 37.3158 151.173 34.3258 149.936 29.6127C148.996 26.1665 146.078 24.1901 144.445 21.1494C143.357 19.1222 142.763 16.8417 142.763 14.5612C142.763 7.01005 148.947 0.827271 156.565 0.827271C164.183 0.827271 170.366 6.95937 170.366 14.5612C170.366 16.7403 169.822 18.9195 168.833 20.896C167.547 23.3792 165.32 25.153 164.133 27.7376C162.996 30.2715 162.402 33.5149 163.639 36.0995C164.677 38.228 166.706 39.5964 168.041 41.4715C169.575 43.6 170.317 46.3366 170.317 48.9719Z" fill="url(#paint14_linear_1019_1313)"/>
<path d="M28.2464 48.9718C28.2464 56.5229 22.0629 62.7057 14.445 62.7057C6.82698 62.7057 0.643555 56.5736 0.643555 48.9718C0.643555 41.37 6.82698 35.2379 14.445 35.2379C22.0629 35.2379 28.2464 41.37 28.2464 48.9718Z" fill="url(#paint15_linear_1019_1313)"/>
<path d="M64.5061 83.1292C64.5061 90.6803 58.3227 96.8631 50.7047 96.8631C43.0867 96.8631 36.9033 90.731 36.9033 83.1292C36.9033 80.6966 37.6453 78.3654 38.7831 76.2369C39.9703 74.0578 41.8006 72.3347 42.8889 70.1048C44.9665 65.8478 44.4224 61.7935 41.108 58.4994C40.2176 57.6379 39.4756 56.675 38.8325 55.6614C37.5464 53.5836 36.9033 51.2017 36.9033 48.7692C36.9033 41.2181 43.0867 35.0353 50.7047 35.0353C58.3227 35.0353 64.5061 41.1674 64.5061 48.7692C64.5061 51.0497 63.9125 53.3302 62.8242 55.3574C62.2801 56.3709 61.5876 57.2832 60.7961 58.1447C57.3334 61.7935 56.344 67.9763 59.2131 72.3347C60.3014 73.9564 61.8844 74.97 62.8242 76.693C63.9125 78.6695 64.5061 80.95 64.5061 83.2306V83.1292Z" fill="url(#paint16_linear_1019_1313)"/>
<path d="M98.7864 48.7184C98.7864 56.2695 92.603 62.4523 84.985 62.4523C77.367 62.4523 71.1836 56.3202 71.1836 48.7184C71.1836 41.1166 77.367 34.9845 84.985 34.9845C92.603 34.9845 98.7864 41.1166 98.7864 48.7184Z" fill="url(#paint17_linear_1019_1313)"/>
<path d="M169.97 83.3826C169.97 90.9337 163.787 97.1165 156.169 97.1165C153.646 97.1165 151.173 96.407 149.045 95.14C147.364 94.1265 146.226 92.4541 144.593 91.2885C140.537 88.3491 134.7 90.1735 131.039 92.8595C128.368 94.836 125.895 96.6097 122.482 97.0151C121.937 97.0658 121.344 97.1165 120.8 97.1165C113.182 97.1165 106.998 90.9844 106.998 83.3826C106.998 81.5075 107.394 79.6324 108.136 77.9093C109.422 74.97 111.994 72.9428 113.231 69.9528C114.171 67.7736 114.616 65.0877 113.874 62.8071C112.934 59.8171 110.164 58.3981 108.68 55.7628C107.542 53.7357 106.949 51.4045 106.949 49.0732C106.949 41.5221 113.132 35.3394 120.75 35.3394C128.368 35.3394 134.552 41.4715 134.552 49.0732C134.552 51.3538 133.958 53.685 132.82 55.6614C132.276 56.675 131.583 57.5872 130.792 58.3981C128.615 60.7293 126.637 63.9221 127.28 67.2668C128.022 71.4732 131.386 74.7166 135.195 76.1356C137.124 76.8451 139.251 77.1492 141.279 76.8451C143.851 76.4903 145.484 74.4632 147.413 72.8415C147.413 72.8415 147.512 72.7908 147.561 72.7401C149.045 71.5238 150.727 70.6116 152.558 70.1555C153.695 69.8514 154.883 69.6994 156.119 69.6994C163.737 69.6994 169.921 75.8315 169.921 83.4333L169.97 83.3826Z" fill="url(#paint18_linear_1019_1313)"/>
<path d="M98.7864 83.1292C98.7864 90.6803 92.603 96.863 84.985 96.863C77.367 96.863 71.1836 90.7309 71.1836 83.1292C71.1836 75.5274 77.367 69.3953 84.985 69.3953C92.603 69.3953 98.7864 75.5274 98.7864 83.1292Z" fill="url(#paint19_linear_1019_1313)"/>
<path d="M120.998 76.4396C120.998 76.4396 120.8 76.7943 120.701 76.9464H120.454C120.454 76.9464 120.652 76.7943 120.998 76.4396Z" fill="url(#paint20_linear_1019_1313)"/>
<path d="M51.9903 76.541C51.9903 76.541 51.9904 76.644 51.8914 76.6954H51.7925C51.7925 76.6954 51.8419 76.644 51.9903 76.541Z" fill="url(#paint21_linear_1019_1313)"/>
<path d="M14.4943 97.6233C22.1166 97.6233 28.2957 91.4744 28.2957 83.8894C28.2957 76.3044 22.1166 70.1555 14.4943 70.1555C6.87197 70.1555 0.692871 76.3044 0.692871 83.8894C0.692871 91.4744 6.87197 97.6233 14.4943 97.6233Z" fill="url(#paint22_linear_1019_1313)"/>
<path d="M21.8158 100.917H7.12402V179.672H21.8158V100.917Z" fill="#053F4C"/>
<path d="M62.2301 179.672C55.3047 179.672 49.0718 177.898 43.5809 174.3C38.09 170.752 34.2316 165.583 32.1045 158.843L44.4219 154.485C47.5878 162.847 53.5733 167.002 62.428 167.002C67.1274 167.002 70.8375 165.887 73.5087 163.708C76.2294 161.478 77.565 158.539 77.565 154.839C77.565 151.343 75.9821 148.961 72.7667 147.744C69.5513 146.528 65.0993 145.667 59.361 145.16C53.6228 144.653 49.2202 143.69 46.1532 142.271C38.5847 138.876 34.7757 132.794 34.7757 124.027C34.7757 117.489 37.2986 111.965 42.3442 107.354C47.3899 102.792 53.6723 100.512 61.1419 100.512C68.6114 100.512 74.1518 102.387 78.8512 106.087C83.5506 109.786 86.6176 114.702 88.0521 120.733L75.8831 124.483C73.9045 116.526 69.0072 112.573 61.2903 112.573C57.3329 112.573 54.1175 113.688 51.5947 115.868C49.1213 118.097 47.8846 120.682 47.8846 123.723C47.8846 126.763 49.0718 129.044 51.4462 130.666C53.8207 132.287 56.5909 133.25 59.7073 133.554C62.8238 133.858 66.4349 134.315 70.5901 134.973C74.7454 135.632 78.0102 136.544 80.4836 137.761C87.7059 141.055 91.317 146.781 91.317 154.941C91.317 162.39 88.6457 168.371 83.2538 172.881C77.8618 177.391 70.8869 179.672 62.2301 179.672Z" fill="#053F4C"/>
<path d="M130.643 178.05C121.64 178.05 114.022 174.351 107.888 166.951C101.754 159.552 98.6875 150.481 98.6875 139.737C98.6875 128.993 101.754 119.618 107.839 112.32C113.923 104.972 121.541 101.323 130.643 101.323C141.032 101.323 149.243 105.174 155.278 112.928V102.387H169.475V176.986H155.278V166.445C149.144 174.198 140.933 178.05 130.643 178.05ZM118.87 157.17C122.927 161.934 127.972 164.316 134.007 164.316C140.042 164.316 145.088 161.934 149.144 157.17C153.201 152.407 155.229 146.579 155.229 139.737C155.229 132.895 153.201 126.814 149.144 122.101C145.088 117.388 140.042 115.006 134.007 115.006C127.972 115.006 122.927 117.388 118.87 122.101C114.814 126.814 112.786 132.693 112.786 139.737C112.786 146.781 114.814 152.356 118.87 157.17Z" fill="#053F4C"/>
</g>
<defs>
<linearGradient id="paint0_linear_1019_1313" x1="0.692871" y1="14.561" x2="28.2462" y2="14.561" gradientUnits="userSpaceOnUse">
<stop stop-color="#87B32C"/>
<stop offset="1" stop-color="#0A7A8D"/>
</linearGradient>
<linearGradient id="paint1_linear_1019_1313" x1="36.9033" y1="14.3584" x2="98.5892" y2="14.3584" gradientUnits="userSpaceOnUse">
<stop stop-color="#87B32C"/>
<stop offset="1" stop-color="#0A7A8D"/>
</linearGradient>
<linearGradient id="paint2_linear_1019_1313" x1="107.543" y1="0.624416" x2="135.096" y2="0.624416" gradientUnits="userSpaceOnUse">
<stop stop-color="#87B32C"/>
<stop offset="1" stop-color="#0A7A8D"/>
</linearGradient>
<linearGradient id="paint3_linear_1019_1313" x1="142.714" y1="31.7919" x2="170.317" y2="31.7919" gradientUnits="userSpaceOnUse">
<stop stop-color="#87B32C"/>
<stop offset="1" stop-color="#0A7A8D"/>
</linearGradient>
<linearGradient id="paint4_linear_1019_1313" x1="0.693022" y1="48.9718" x2="5.63976" y2="48.9718" gradientUnits="userSpaceOnUse">
<stop stop-color="#87B32C"/>
<stop offset="1" stop-color="#0A7A8D"/>
</linearGradient>
<linearGradient id="paint5_linear_1019_1313" x1="36.9033" y1="65.9492" x2="64.5061" y2="65.9492" gradientUnits="userSpaceOnUse">
<stop stop-color="#87B32C"/>
<stop offset="1" stop-color="#0A7A8D"/>
</linearGradient>
<linearGradient id="paint6_linear_1019_1313" x1="71.2331" y1="48.7184" x2="98.7864" y2="48.7184" gradientUnits="userSpaceOnUse">
<stop stop-color="#87B32C"/>
<stop offset="1" stop-color="#0A7A8D"/>
</linearGradient>
<linearGradient id="paint7_linear_1019_1313" x1="107.048" y1="66.1519" x2="169.97" y2="66.1519" gradientUnits="userSpaceOnUse">
<stop stop-color="#87B32C"/>
<stop offset="1" stop-color="#0A7A8D"/>
</linearGradient>
<linearGradient id="paint8_linear_1019_1313" x1="71.2331" y1="83.1291" x2="98.7864" y2="83.1291" gradientUnits="userSpaceOnUse">
<stop stop-color="#87B32C"/>
<stop offset="1" stop-color="#0A7A8D"/>
</linearGradient>
<linearGradient id="paint9_linear_1019_1313" x1="120.454" y1="76.693" x2="120.998" y2="76.693" gradientUnits="userSpaceOnUse">
<stop stop-color="#87B32C"/>
<stop offset="1" stop-color="#0A7A8D"/>
</linearGradient>
<linearGradient id="paint10_linear_1019_1313" x1="51.8419" y1="76.644" x2="51.9903" y2="76.644" gradientUnits="userSpaceOnUse">
<stop stop-color="#87B32C"/>
<stop offset="1" stop-color="#0A7A8D"/>
</linearGradient>
<linearGradient id="paint11_linear_1019_1313" x1="0.692871" y1="49.1238" x2="170.317" y2="49.1238" gradientUnits="userSpaceOnUse">
<stop stop-color="#87B32C"/>
<stop offset="1" stop-color="#0A7A8D"/>
</linearGradient>
<linearGradient id="paint12_linear_1019_1313" x1="0.69318" y1="49.1239" x2="170.317" y2="49.1239" gradientUnits="userSpaceOnUse">
<stop stop-color="#87B32C"/>
<stop offset="1" stop-color="#0A7A8D"/>
</linearGradient>
<linearGradient id="paint13_linear_1019_1313" x1="0.693052" y1="49.1238" x2="170.317" y2="49.1238" gradientUnits="userSpaceOnUse">
<stop stop-color="#87B32C"/>
<stop offset="1" stop-color="#0A7A8D"/>
</linearGradient>
<linearGradient id="paint14_linear_1019_1313" x1="0.69295" y1="49.1239" x2="170.317" y2="49.1239" gradientUnits="userSpaceOnUse">
<stop stop-color="#87B32C"/>
<stop offset="1" stop-color="#0A7A8D"/>
</linearGradient>
<linearGradient id="paint15_linear_1019_1313" x1="0.693022" y1="49.1238" x2="170.317" y2="49.1238" gradientUnits="userSpaceOnUse">
<stop stop-color="#87B32C"/>
<stop offset="1" stop-color="#0A7A8D"/>
</linearGradient>
<linearGradient id="paint16_linear_1019_1313" x1="0.693183" y1="49.1239" x2="170.317" y2="49.1239" gradientUnits="userSpaceOnUse">
<stop stop-color="#87B32C"/>
<stop offset="1" stop-color="#0A7A8D"/>
</linearGradient>
<linearGradient id="paint17_linear_1019_1313" x1="0.692549" y1="49.1238" x2="170.316" y2="49.1238" gradientUnits="userSpaceOnUse">
<stop stop-color="#87B32C"/>
<stop offset="1" stop-color="#0A7A8D"/>
</linearGradient>
<linearGradient id="paint18_linear_1019_1313" x1="0.692732" y1="49.1239" x2="170.316" y2="49.1239" gradientUnits="userSpaceOnUse">
<stop stop-color="#87B32C"/>
<stop offset="1" stop-color="#0A7A8D"/>
</linearGradient>
<linearGradient id="paint19_linear_1019_1313" x1="0.692549" y1="49.1239" x2="170.316" y2="49.1239" gradientUnits="userSpaceOnUse">
<stop stop-color="#87B32C"/>
<stop offset="1" stop-color="#0A7A8D"/>
</linearGradient>
<linearGradient id="paint20_linear_1019_1313" x1="0.692837" y1="49.1237" x2="170.318" y2="49.1237" gradientUnits="userSpaceOnUse">
<stop stop-color="#87B32C"/>
<stop offset="1" stop-color="#0A7A8D"/>
</linearGradient>
<linearGradient id="paint21_linear_1019_1313" x1="0.692697" y1="48.6949" x2="170.316" y2="48.6949" gradientUnits="userSpaceOnUse">
<stop stop-color="#87B32C"/>
<stop offset="1" stop-color="#0A7A8D"/>
</linearGradient>
<linearGradient id="paint22_linear_1019_1313" x1="0.692871" y1="49.1239" x2="170.317" y2="49.1239" gradientUnits="userSpaceOnUse">
<stop stop-color="#87B32C"/>
<stop offset="1" stop-color="#0A7A8D"/>
</linearGradient>
<clipPath id="clip0_1019_1313">
<rect width="169.624" height="179.047" fill="white" transform="translate(0.692871 0.624512)"/>
</clipPath>
</defs>
</svg>
